<?xml version="1.0" encoding="utf-8"?>
<!-- Generator: Adobe Illustrator 24.1.2, SVG Export Plug-In . SVG Version: 6.00 Build 0)  -->
<svg version="1.1" id="Layer_1" xmlns="http://www.w3.org/2000/svg" xmlns:xlink="http://www.w3.org/1999/xlink" x="0px" y="0px"
	 viewBox="0 0 800 298.1" style="enable-background:new 0 0 800 298.1;" xml:space="preserve">
<style type="text/css">
	.st0{fill-rule:evenodd;clip-rule:evenodd;fill:#1B62AC;}
	.st1{fill:#1B62AC;}
</style>
<path class="st0" d="M0,186V0h189.6v30.9H44.8v48.3h113.8v34.4H44.8V186H0z M217.2,186V0h41.3v151.6h141.2V186H217.2z M589.3,34.4
	H472.1v117.2h117.2v-31h44.8v20.6c0,17.3-0.4,28-10.4,37.9c-7.4,7.4-20.7,6.9-37.8,6.9H475.5c-17.1,0-31.1-0.2-37.8-6.9
	c-7-7-6.9-20.6-6.9-37.9V44.8c0-17.3-0.9-26.8,6.9-34.6C447.5,0.4,458.4,0,475.5,0H586c17.2,0,28.6-2.3,37.8,6.9
	c11.2,11.2,10.4,20.7,10.4,37.9v17.1h-44.9V34.4z"/>
<path class="st1" d="M0,272.3l3.2-6.3c3.1,2.7,6.8,4.9,10.7,6.3c4.1,1.3,8.4,2,12.7,1.9c5.7,0,10.1-1.1,13.1-3.3
	c3-2.1,4.8-5.6,4.6-9.3c0.1-2.1-0.7-4.2-2.2-5.7c-1.7-1.6-3.6-2.8-5.8-3.5c-3.2-1.1-6.4-2-9.7-2.7c-4.6-1-9.1-2.3-13.5-4
	c-3.3-1.3-6.2-3.3-8.5-6c-2.2-2.6-3.3-6-3.3-10.2c-0.1-3.8,1-7.5,3.2-10.7c2.2-3.2,5.4-5.7,9-7.2c4.3-1.8,8.9-2.6,13.6-2.5
	c4.7,0,9.3,0.7,13.7,2.3c4,1.4,7.7,3.7,10.8,6.6l-3.1,6.3c-3-2.7-6.4-4.8-10.2-6.3c-3.6-1.3-7.4-2-11.2-2c-5.5,0-9.8,1.2-12.9,3.5
	c-3.1,2.2-4.8,5.9-4.6,9.7c-0.2,3.2,1.4,6.3,4.1,8c2.7,1.8,6.9,3.3,12.4,4.6c6.1,1.5,10.8,2.8,14.3,4.1c3.3,1.1,6.3,3,8.7,5.6
	c2.3,2.5,3.5,5.8,3.5,9.9c0.1,3.8-1,7.4-3.2,10.5c-2.3,3.2-5.4,5.6-9.1,7c-4.4,1.7-9.1,2.6-13.8,2.5C15.4,281.2,6.6,278.2,0,272.3z"
	/>
<path class="st1" d="M124.2,231.7l-28.9,66.7H87l8.2-18.6l-20.7-48.1h8.6l16.3,39.9l16.5-39.9L124.2,231.7z"/>
<path class="st1" d="M191.7,249.7v30.7h-8.1v-30.2c0-4.5-0.9-7.8-2.7-9.9s-4.6-3.1-8.5-3.1c-4.5,0-8.1,1.4-10.7,4.1s-4,6.4-4,11.1
	v28h-8.1v-48.8h8v8c1.5-2.9,3.8-5.3,6.7-6.9c3-1.6,6.4-2.4,9.8-2.4C185.9,230.4,191.7,236.8,191.7,249.7z"/>
<path class="st1" d="M231.7,278c-3.5-2.1-6.4-5.1-8.2-8.8c-3.8-8.5-3.8-18.2,0.1-26.7c1.9-3.7,4.7-6.9,8.3-9
	c3.8-2.2,8.2-3.3,12.6-3.2c3.3,0,6.5,0.6,9.6,1.8c2.8,1,5.4,2.6,7.6,4.7l-2.7,6c-4.6-3.7-9.3-5.6-14-5.6c-5,0-8.9,1.6-11.7,4.9
	c-2.8,3.3-4.2,7.9-4.2,13.8c0,5.9,1.4,10.4,4.2,13.6s6.7,4.8,11.7,4.9c4.7,0,9.4-1.9,14-5.6l2.7,6c-2.3,2.1-4.9,3.6-7.8,4.6
	c-3.1,1.1-6.4,1.7-9.7,1.7C239.8,281.2,235.5,280.1,231.7,278z"/>
<path class="st1" d="M316.3,237.4l-5.3,0.5c-5,0.5-8.6,2-10.9,4.7c-2.3,2.8-3.5,6.3-3.4,9.9v27.9h-8.1v-48.8h7.9v8.5
	c2.7-5.7,8.1-8.9,16.1-9.5l2.9-0.2L316.3,237.4z"/>
<path class="st1" d="M348.1,278c-3.5-2.1-6.3-5.2-8.1-8.9c-3.8-8.5-3.8-18.2,0-26.8c1.8-3.7,4.6-6.8,8.1-8.9
	c7.6-4.1,16.8-4.1,24.4,0c3.5,2.1,6.4,5.2,8.2,8.9c3.8,8.5,3.8,18.2,0,26.8c-1.8,3.7-4.6,6.8-8.2,8.9
	C364.9,282.1,355.7,282.1,348.1,278z M371.4,269.6c2.6-3.2,3.9-7.8,3.9-13.9c0-6-1.3-10.5-3.9-13.8c-2.6-3.2-6.3-4.9-11-4.9
	c-4.7,0-8.4,1.6-11,4.9s-3.9,7.8-3.9,13.8c0,6,1.3,10.6,3.9,13.8c2.6,3.2,6.3,4.8,11.1,4.8C365.1,274.4,368.8,272.8,371.4,269.6z"/>
<path class="st1" d="M454.8,249.7v30.7h-8.1v-30.2c0-4.5-0.9-7.8-2.6-9.9s-4.6-3.1-8.5-3.1c-4.5,0-8.1,1.4-10.7,4.1
	c-2.7,2.7-4,6.4-4,11.1v28h-8.1v-48.8h8v8c1.5-2.9,3.8-5.3,6.7-6.9c3-1.6,6.4-2.4,9.8-2.4C448.9,230.4,454.8,236.8,454.8,249.7z"/>
<path class="st1" d="M495.7,210.5v9.1h-9.8v-9.1H495.7z M486.7,231.6h8.1v48.8h-8.1V231.6z"/>
<path class="st1" d="M565.6,274v6.4h-41.4v-5.6l30.5-36.8h-29.5v-6.4h39.3v5.9L534.3,274H565.6z"/>
<path class="st1" d="M634.2,257.2h-35.7c0.3,5.7,1.8,10,4.6,12.9c2.8,2.9,6.8,4.4,11.9,4.4c5.7,0,11.3-2.1,15.6-5.8l2.7,5.9
	c-2.4,2.1-5.2,3.8-8.2,4.8c-3.3,1.1-6.7,1.7-10.2,1.7c-7.6,0-13.6-2.2-18-6.7c-4.4-4.5-6.6-10.7-6.6-18.5c-0.1-4.6,0.9-9.1,2.9-13.3
	c1.8-3.7,4.6-6.8,8.2-9c3.6-2.2,7.8-3.3,12-3.2c6.5,0,11.6,2.1,15.2,6.4s5.5,10.1,5.5,17.5L634.2,257.2z M603.3,240.7
	c-2.6,2.7-4.1,6.4-4.6,11.3h28.4c-0.1-4.9-1.4-8.7-3.7-11.4c-2.3-2.6-5.6-4-9.8-4C609.7,236.5,606,238,603.3,240.7z"/>
<polygon class="st0" points="777,148.1 777,-0.3 742.4,-0.3 742.4,112 763.3,148.2 729,148.2 729,164.6 759.7,217.9 800,148.1 "/>
<polygon class="st0" points="736.5,132.7 696.2,62.9 655.9,132.7 679,132.7 679,281.1 713.5,281.1 713.5,132.7 "/>
</svg>
